<?xml version="1.0" encoding="utf-8"?>
<!-- Generator: Adobe Illustrator 19.0.0, SVG Export Plug-In . SVG Version: 6.00 Build 0)  -->
<svg version="1.1" id="Layer_1" xmlns="http://www.w3.org/2000/svg" xmlns:xlink="http://www.w3.org/1999/xlink" x="0px" y="0px"
	 viewBox="796 -846 1792 1792" style="enable-background:new 796 -846 1792 1792;" xml:space="preserve">
<style type="text/css">
	.st0{fill:#0077B5;}
</style>
<path class="st0" d="M1273-221v991H943v-991H1273z M1294-527c0.7,48.7-16.2,89.3-50.5,122s-79.5,49-135.5,49h-2
	c-54.7,0-98.7-16.3-132-49s-50-73.3-50-122c0-49.3,17.2-90.2,51.5-122.5S1054.7-698,1110-698s99.7,16.2,133,48.5
	S1293.3-576.3,1294-527z M2460,202v568h-329V240c0-70-13.5-124.8-40.5-164.5S2021.3,16,1964,16c-42,0-77.2,11.5-105.5,34.5
	S1809,102,1795,136c-7.3,20-11,47-11,81v553h-329c1.3-266,2-481.7,2-647s-0.3-264-1-296l-1-48h329v144h-2c13.3-21.3,27-40,41-56
	s32.8-33.3,56.5-52s52.7-33.2,87-43.5S2039-244,2081-244c114,0,205.7,37.8,275,113.5S2460,56,2460,202z"/>
</svg>
