<?xml version="1.0" encoding="utf-8"?>
<!-- Generator: Adobe Illustrator 19.0.0, SVG Export Plug-In . SVG Version: 6.00 Build 0)  -->
<svg version="1.1" id="Layer_1" xmlns="http://www.w3.org/2000/svg" xmlns:xlink="http://www.w3.org/1999/xlink" x="0px" y="0px"
	 viewBox="796 -846 1792 1792" style="enable-background:new 796 -846 1792 1792;" xml:space="preserve">
<style type="text/css">
	.st0{fill:#25D366;}
</style>
<path class="st0" d="M1909,128c8.7,0,41.2,14.7,97.5,44c56.3,29.3,86.2,47,89.5,53c1.3,3.3,2,8.3,2,15c0,22-5.7,47.3-17,76
	c-10.7,26-34.3,47.8-71,65.5s-70.7,26.5-102,26.5c-38,0-101.3-20.7-190-62c-65.3-30-122-69.3-170-118s-97.3-110.3-148-185
	c-48-71.3-71.7-136-71-194v-8c2-60.7,26.7-113.3,74-158c16-14.7,33.3-22,52-22c4,0,10,0.5,18,1.5s14.3,1.5,19,1.5
	c12.7,0,21.5,2.2,26.5,6.5s10.2,13.5,15.5,27.5c5.3,13.3,16.3,42.7,33,88s25,70.3,25,75c0,14-11.5,33.2-34.5,57.5S1523-41.7,1523-35
	c0,4.7,1.7,9.7,5,15c22.7,48.7,56.7,94.3,102,137c37.3,35.3,87.7,69,151,101c8,4.7,15.3,7,22,7c10,0,28-16.2,54-48.5
	C1883,144.2,1900.3,128,1909,128z M1706,658c84.7,0,165.8-16.7,243.5-50S2094,530,2150,474s100.7-122.8,134-200.5s50-158.8,50-243.5
	s-16.7-165.8-50-243.5S2206-358,2150-414s-122.8-100.7-200.5-134s-158.8-50-243.5-50s-165.8,16.7-243.5,50S1318-470,1262-414
	s-100.7,122.8-134,200.5S1078-54.7,1078,30c0,135.3,40,258,120,368l-79,233l242-77C1466.3,623.3,1581.3,658,1706,658z M1706-724
	c102,0,199.5,20,292.5,60s173.2,93.7,240.5,161s121,147.5,161,240.5S2460-72,2460,30s-20,199.5-60,292.5s-93.7,173.2-161,240.5
	s-147.5,121-240.5,161S1808,784,1706,784c-130,0-251.7-31.3-365-94L924,824l136-405C988,300.3,952,170.7,952,30
	c0-102,20-199.5,60-292.5s93.7-173.2,161-240.5s147.5-121,240.5-161S1604-724,1706-724z"/>
</svg>
